<svg xmlns="http://www.w3.org/2000/svg" version="1.1" xmlns:xlink="http://www.w3.org/1999/xlink" width="512" height="512" x="0" y="0" viewBox="0 0 511.942 511.942" style="enable-background:new 0 0 512 512" xml:space="preserve" class="hovered-paths"><g><path fill="#453D81" d="M447.554 132.578H376.67c-11.219 0-20.314 9.095-20.314 20.314v27.997c0 11.219 9.095 20.314 20.314 20.314h70.885c11.219 0 20.314-9.095 20.314-20.314v-27.997c0-11.219-9.095-20.314-20.315-20.314z" opacity="1" data-original="#453d81" class=""></path><path fill="#453D81" d="M414.943 201.2h-38.265c-11.22 0-20.317-9.087-20.317-20.307V152.89c0-11.22 9.097-20.307 20.317-20.307h38.265c-11.22 0-20.307 9.087-20.307 20.307v28.003c0 11.22 9.087 20.307 20.307 20.307z" opacity="1" data-original="#453d81" class=""></path><path fill="#DF656E" d="M502.124 216.072c4.592 79.53 2.411 159.059-6.543 238.589-2.156 19.153-17.628 34.049-36.846 35.521a2651.447 2651.447 0 0 1-405.558 0c-19.254-1.475-34.694-16.428-36.853-35.617-11.822-105.076-11.822-210.151 0-315.227 2.155-19.156 17.543-34.137 36.763-35.61a2652.832 2652.832 0 0 1 225.051-7.68c21.59.181 39.223 17.363 39.806 38.946l.021.775c.575 21.373 17.761 38.59 39.137 39.058 35.625.78 71.249 1.972 106.874 3.576 20.476.923 36.967 17.208 38.148 37.669z" opacity="1" data-original="#df656e" class=""></path><path fill="#DC4955" d="M67.088 491.203c-4.636-.319-9.273-.67-13.909-1.02-19.256-1.484-34.69-16.433-36.853-35.617-11.817-105.079-11.817-210.159 0-315.228 2.153-19.163 17.546-34.144 36.761-35.617 4.657-.361 9.303-.701 13.96-1.03a42.648 42.648 0 0 0-14.125 27.231c-12.528 111.354-12.528 222.708 0 334.061a42.474 42.474 0 0 0 14.166 27.22z" opacity="1" data-original="#dc4955"></path><path fill="#E4F6FF" d="M453.693 279.633h-40.184c-10.07 0-18.234-8.164-18.234-18.234v-22.353c0-10.07 8.164-18.234 18.234-18.234h40.184c10.071 0 18.234 8.164 18.234 18.234v22.353c.001 10.07-8.163 18.234-18.234 18.234z" opacity="1" data-original="#e4f6ff"></path><path fill="#453D81" d="M338.186 303.044c0 50.031-26.746 93.818-66.722 117.834-20.647 12.404-44.807 19.534-70.647 19.534-75.86 0-137.369-61.498-137.369-137.369s61.508-137.369 137.369-137.369c25.84 0 50 7.13 70.647 19.534 39.976 24.018 66.722 67.805 66.722 117.836z" opacity="1" data-original="#453d81" class=""></path><path fill="#453D81" d="M210.185 440.093c-3.091.216-6.213.319-9.365.319-75.86 0-137.369-61.498-137.369-137.369s61.508-137.369 137.369-137.369c3.153 0 6.274.103 9.365.319-71.502 4.801-128.014 64.321-128.014 137.049.001 72.73 56.512 132.25 128.014 137.051z" opacity="1" data-original="#453d81" class=""></path><circle cx="200.819" cy="303.044" r="93.749" fill="#E4F6FF" opacity="1" data-original="#e4f6ff"></circle><ellipse cx="247.694" cy="303.044" fill="#D3EFFB" rx="46.875" ry="81.204" opacity="1" data-original="#d3effb"></ellipse><g fill="#453D81"><circle cx="200.819" cy="303.044" r="35.165" fill="#453D81" opacity="1" data-original="#453d81" class=""></circle><ellipse cx="218.402" cy="303.044" rx="17.583" ry="30.449" fill="#453D81" opacity="1" data-original="#453d81" class=""></ellipse></g><circle cx="356.355" cy="426.469" r="29.676" fill="#F6F9F9" opacity="1" data-original="#f6f9f9"></circle><path fill="#DDDAEC" d="M363.544 455.256a29.001 29.001 0 0 1-7.181.886c-16.392 0-29.683-13.281-29.683-29.672 0-16.392 13.291-29.672 29.683-29.672 2.473 0 4.884.299 7.181.886-12.92 3.204-22.481 14.877-22.481 28.786 0 13.908 9.561 25.581 22.481 28.786z" opacity="1" data-original="#dddaec"></path><path fill="#F6E266" d="m130.483 116.391 41.401-9.069c12.814-2.807 12.814-21.081 0-23.888l-41.401-9.069a12.228 12.228 0 0 1-9.328-9.328l-9.069-41.401c-2.807-12.814-21.081-12.814-23.888 0l-9.069 41.401a12.228 12.228 0 0 1-9.328 9.328L28.4 83.434c-12.814 2.807-12.814 21.081 0 23.888l41.401 9.069a12.228 12.228 0 0 1 9.328 9.328l9.069 41.401c2.807 12.814 21.081 12.814 23.888 0l9.069-41.401a12.23 12.23 0 0 1 9.328-9.328z" opacity="1" data-original="#f6e266"></path><path d="M510.413 231.159c-.194-4.138-3.713-7.348-7.842-7.141a7.5 7.5 0 0 0-7.141 7.842c3.448 73.661.993 148.34-7.297 221.96-1.756 15.542-14.357 27.691-29.963 28.888-134.183 10.277-270.25 10.276-404.417 0-15.612-1.203-28.219-13.39-29.977-28.978-11.7-104.034-11.7-209.529 0-313.554a32.868 32.868 0 0 1 13.758-23.177l30.664 6.717a4.741 4.741 0 0 1 3.606 3.606l9.069 41.4c2.031 9.275 9.775 15.506 19.27 15.506 9.494 0 17.239-6.232 19.27-15.506l9.069-41.401a4.741 4.741 0 0 1 3.606-3.606l41.401-9.069c6.087-1.333 10.848-5.137 13.412-10.271 30.297-.79 60.935-1.081 91.176-.831 17.68.152 31.897 14.053 32.371 31.745.006.158.015.316.015.474 0 .067.001.135.003.202.686 25.443 21.101 45.805 46.473 46.354 35.256.775 71.155 1.976 106.696 3.569a32.501 32.501 0 0 1 27.876 18.456 7.503 7.503 0 0 0 6.77 4.262 7.5 7.5 0 0 0 6.758-10.742c-5.938-12.4-16.809-21.4-29.668-25.114v-19.863c0-15.333-12.479-27.807-27.817-27.807h-70.885c-15.333 0-27.807 12.474-27.807 27.807v13.138c-13.242-3.862-22.974-15.913-23.399-30.386a26.051 26.051 0 0 0-.022-.851c-.688-25.709-21.435-46.022-47.236-46.244-29.892-.251-60.162.034-90.117.798-2.035-6.621-7.389-11.658-14.598-13.237l-41.401-9.069a4.741 4.741 0 0 1-3.606-3.606l-9.069-41.401c-2.032-9.275-9.776-15.506-19.271-15.506s-17.238 6.231-19.27 15.506L71.804 63.43a4.741 4.741 0 0 1-3.606 3.606l-41.401 9.069c-9.275 2.031-15.506 9.775-15.506 19.27 0 7.172 3.559 13.341 9.297 16.808-6.424 7.28-10.61 16.458-11.718 26.315-11.825 105.137-11.825 211.76 0 316.909 2.563 22.729 20.955 40.5 43.733 42.255 67.466 5.167 135.408 7.751 203.352 7.751s135.889-2.584 203.36-7.751c22.772-1.746 41.16-19.477 43.723-42.163 8.379-74.408 10.86-149.888 7.375-224.34zm-133.745-91.077h70.885c7.067 0 12.817 5.745 12.817 12.807v17.845a4720.88 4720.88 0 0 0-96.509-3.255v-14.59c0-7.062 5.745-12.807 12.807-12.807zM30.006 90.76l41.401-9.069c7.5-1.643 13.407-7.55 15.049-15.049l9.069-41.401c.735-3.353 3.474-3.715 4.617-3.715 1.144 0 3.883.362 4.618 3.716l9.069 41.4c1.643 7.5 7.55 13.407 15.049 15.049l41.401 9.069c3.353.735 3.715 3.474 3.715 4.617 0 1.144-.362 3.883-3.716 4.618l-41.4 9.069c-7.5 1.642-13.407 7.549-15.049 15.049l-9.069 41.401c-.735 3.354-3.474 3.716-4.618 3.716s-3.882-.362-4.617-3.716l-9.069-41.4c-1.643-7.5-7.55-13.407-15.049-15.049l-41.401-9.069c-3.354-.735-3.716-3.474-3.716-4.618s.362-3.883 3.716-4.618z" fill="#000000" opacity="1" data-original="#000000" class="hovered-path"></path><path d="M413.51 287.133h40.185c14.19 0 25.734-11.544 25.734-25.734v-22.353c0-14.19-11.544-25.734-25.734-25.734H413.51c-14.19 0-25.734 11.544-25.734 25.734v22.353c0 14.189 11.544 25.734 25.734 25.734zm-10.734-48.088c0-5.919 4.815-10.734 10.734-10.734h40.185c5.919 0 10.734 4.815 10.734 10.734v22.353c0 5.919-4.815 10.734-10.734 10.734H413.51c-5.919 0-10.734-4.815-10.734-10.734zM121.819 424.493c23.505 15.321 50.822 23.42 78.998 23.42 79.881 0 144.87-64.988 144.87-144.87s-64.988-144.87-144.87-144.87-144.87 64.988-144.87 144.87c0 37.855 14.513 73.666 40.866 100.833a7.5 7.5 0 0 0 10.767-10.443c-23.623-24.354-36.633-56.456-36.633-90.39 0-71.61 58.259-129.87 129.87-129.87s129.87 58.259 129.87 129.87-58.259 129.87-129.87 129.87c-25.26 0-49.745-7.257-70.807-20.986a7.5 7.5 0 0 0-8.191 12.566z" fill="#000000" opacity="1" data-original="#000000" class="hovered-path"></path><path d="M200.819 404.295c55.83 0 101.25-45.421 101.25-101.25s-45.42-101.25-101.25-101.25-101.25 45.42-101.25 101.25 45.42 101.25 101.25 101.25zm0-187.501c47.559 0 86.25 38.691 86.25 86.25s-38.691 86.25-86.25 86.25-86.25-38.692-86.25-86.25 38.691-86.25 86.25-86.25z" fill="#000000" opacity="1" data-original="#000000" class="hovered-path"></path><path d="M200.819 345.71c23.525 0 42.665-19.14 42.665-42.666 0-23.525-19.14-42.665-42.665-42.665-23.526 0-42.666 19.14-42.666 42.665.001 23.526 19.14 42.666 42.666 42.666zm0-70.331c15.254 0 27.665 12.411 27.665 27.665 0 15.255-12.411 27.666-27.665 27.666-15.255 0-27.666-12.411-27.666-27.666.001-15.254 12.411-27.665 27.666-27.665zM356.356 463.646c20.499 0 37.176-16.677 37.176-37.176s-16.677-37.175-37.176-37.175-37.176 16.677-37.176 37.175c0 20.499 16.677 37.176 37.176 37.176zm0-59.351c12.228 0 22.176 9.948 22.176 22.175s-9.948 22.176-22.176 22.176-22.176-9.948-22.176-22.176 9.949-22.175 22.176-22.175z" fill="#000000" opacity="1" data-original="#000000" class="hovered-path"></path></g></svg>