<svg xmlns="http://www.w3.org/2000/svg" version="1.1" xmlns:xlink="http://www.w3.org/1999/xlink" width="512" height="512" x="0" y="0" viewBox="0 0 512 512" style="enable-background:new 0 0 512 512" xml:space="preserve" class="hovered-paths"><g><path d="M414 10H98c-48.601 0-88 39.399-88 88v316c0 48.601 39.399 88 88 88h158V305.5h-59v-71.006h59v-52.008c0-33.259 15.455-84.938 84.206-84.938h74.517v69.66h-56.742c-7.639 0-17.982 3.59-17.982 19.316v47.521h75.172L407.98 305.5H340V502h74c48.601 0 88-39.399 88-88V98c0-48.601-39.399-88-88-88z" style="" fill="#6E87F5" data-original="#6e87f5" class="hovered-path"></path><path d="M256 395.493c-5.523 0-10-4.477-10-10v-.16c0-5.523 4.477-10 10-10s10 4.477 10 10v.16c0 5.523-4.477 10-10 10z" fill="#000000" opacity="1" data-original="#000000"></path><path d="M414 512h-74c-5.523 0-10-4.477-10-10V305.5c0-5.523 4.477-10 10-10h58.937l5.178-51.455H340c-5.523 0-10-4.477-10-10v-47.521c0-21.638 15.073-29.316 27.981-29.316h46.742v-49.66h-64.517c-66.976 0-74.207 52.406-74.207 74.938v52.007c0 5.523-4.477 10-10 10h-49V295.5h49c5.523 0 10 4.477 10 10V344c0 5.523-4.477 10-10 10s-10-4.477-10-10v-28.5h-49c-5.523 0-10-4.477-10-10v-71.006c0-5.523 4.477-10 10-10h49v-42.007c0-13.38 2.37-39.076 18.243-60.834 11.349-15.558 33.741-34.104 75.964-34.104h74.517c5.523 0 10 4.477 10 10v69.66c0 5.523-4.477 10-10 10h-56.742c-5.818 0-7.981 2.525-7.981 9.316v37.521h65.172a10.002 10.002 0 0 1 9.95 11.001l-7.191 71.455a10 10 0 0 1-9.95 8.999H350V492h64c43.009 0 78-34.991 78-78V98c0-43.009-34.991-78-78-78H98c-43.009 0-78 34.991-78 78v316c0 43.009 34.991 78 78 78h148v-67.5c0-5.523 4.477-10 10-10s10 4.477 10 10V502c0 5.523-4.477 10-10 10H98c-54.038 0-98-43.962-98-98V98C0 43.962 43.962 0 98 0h316c54.038 0 98 43.962 98 98v316c0 54.038-43.962 98-98 98z" fill="#000000" opacity="1" data-original="#000000"></path><path d="M58 206c-5.523 0-10-4.477-10-10v-83.5c0-5.523 4.477-10 10-10s10 4.477 10 10V196c0 5.523-4.477 10-10 10zM58 249.5c-5.523 0-10-4.477-10-10v-.118c0-5.523 4.477-10 10-10s10 4.477 10 10v.118c0 5.523-4.477 10-10 10z" fill="#000000" opacity="1" data-original="#000000"></path></g></svg>