<svg xmlns="http://www.w3.org/2000/svg" version="1.1" xmlns:xlink="http://www.w3.org/1999/xlink" width="512" height="512" x="0" y="0" viewBox="0 0 512 512" style="enable-background:new 0 0 512 512" xml:space="preserve"><g><path d="M115.613 510.899h60.972l-96.206-61.66L1.298 403.03c3.454 60.062 53.403 107.869 114.315 107.869z" style="" fill="#FDE494" data-original="#fde494"></path><path d="m335.828 475.665-68.858-17.617H115.613c-33.999 0-61.66-27.661-61.66-61.66v-33.803l-26.426-28.359-26.426 4.673v57.489c0 2.231.072 4.444.197 6.643L176.585 510.9h208.318l-49.075-35.235z" style="" fill="#FEA150" data-original="#fea150"></path><path d="M441.806 439.194c-11.22 11.612-26.935 18.854-44.318 18.854H266.97L384.903 510.9h12.585c41.113 0 77.229-21.783 97.43-54.41l-26.964-16.059-26.148-1.237z" style="" fill="#FF5D4A" data-original="#ff5d4a"></path><path d="M459.148 325.313v71.074c0 16.616-6.619 31.707-17.342 42.807l53.113 17.296C505.742 439.008 512 418.416 512 396.387v-62.67l-27.337-15.358-25.515 6.954z" style="" fill="#E45261" data-original="#e45261"></path><path d="m512 148.869-28.142-6.701-24.71 14.794v168.351L512 333.717z" style="" fill="#FF4D95" data-original="#ff4d95"></path><path d="M512 114.512c0-57.509-42.616-105.246-97.925-113.306l-69.284 28.831-35.108 22.815h87.805c33.999 0 61.66 27.661 61.66 61.66v42.45L512 148.869v-34.357z" style="" fill="#CB319C" data-original="#cb319c"></path><path d="m318.15 0-65.54 24.583-51.693 28.269h108.768l104.39-51.646A114.874 114.874 0 0 0 397.488 0H318.15z" style="" fill="#8A3293" data-original="#8a3293"></path><path d="M256.551 405.196c18.319 0 35.876-3.313 52.114-9.36l-85.835-38.963-90.982-18.617c26.86 40.318 72.727 66.94 124.703 66.94z" style="" fill="#FF5D4A" data-original="#ff5d4a"></path><path d="M329.546 304.702c-15.849 23.414-42.656 38.834-72.996 38.834-40.186 0-74.149-27.06-84.685-63.909l-23.631-14.769-40.76 4.529a148.816 148.816 0 0 0 24.372 68.869l176.817 57.581c38.221-14.234 69.088-43.663 85.274-80.894l-31.685-16.05-32.706 5.809z" style="" fill="#E45261" data-original="#e45261"></path><path d="M168.465 255.449c0-21.831 8-41.817 21.201-57.223l-37.577-5.257-38.168 16.855a149.159 149.159 0 0 0-7.116 45.624c0 4.702.243 9.345.669 13.936l64.391 10.24a87.78 87.78 0 0 1-3.4-24.175zM406.297 255.449c0-32.069-10.138-61.813-27.369-86.204l-37.317-5.296-38.335 16.881c24.819 15.598 41.361 43.205 41.361 74.62a87.584 87.584 0 0 1-15.09 49.252l64.392 10.24c7.933-18.247 12.358-38.359 12.358-59.493z" style="" fill="#FF4D95" data-original="#ff4d95"></path><path d="M256.551 167.363c17.157 0 33.171 4.948 46.725 13.466l75.652-11.584c-27.137-38.41-71.875-63.542-122.377-63.542-66.667 0-123.288 43.794-142.63 104.121l75.745-11.599c16.167-18.87 40.145-30.862 66.885-30.862zM397.488 149.746c19.428 0 35.234-15.806 35.234-35.234s-15.806-35.234-35.234-35.234-35.234 15.806-35.234 35.234 15.806 35.234 35.234 35.234z" style="" fill="#CB319C" data-original="#cb319c"></path><path d="M53.953 312.889 28.512 300.2l-27.411-4.522v43.221l52.852 23.685z" style="" fill="#FF5D4A" data-original="#ff5d4a"></path><path d="M1.101 252.47v43.208l52.852 17.211v-52.015l-27.461-9.872z" style="" fill="#E45261" data-original="#e45261"></path><path d="m53.953 219.007-27.158-.245L1.101 227.1v25.37l52.852 8.404z" style="" fill="#FF4D95" data-original="#ff4d95"></path><path d="m53.953 179.371-27.994 2.839-24.858 23.309V227.1l52.852-8.093z" style="" fill="#CB319C" data-original="#cb319c"></path><path d="m1.101 205.519 52.852-26.148v-60.265l-30.999 2.964-21.853 20.863z" style="" fill="#8A3293" data-original="#8a3293"></path><path d="M205.719 0 85.126 46.381 2.485 96.72a114.974 114.974 0 0 0-1.384 17.792v28.421l52.852-23.826v-4.595c0-33.999 27.661-61.66 61.66-61.66h85.304L318.15 0H205.719z" style="" fill="#523494" data-original="#523494"></path><path d="M115.613 0C58.522 0 11.058 41.997 2.485 96.72L205.719 0h-90.106z" style="" fill="#2D2D87" data-original="#2d2d87"></path><path d="M256.551 100.198c-85.606 0-155.252 69.645-155.252 155.252 0 27.293 7.183 54.138 20.775 77.632a8.262 8.262 0 0 0 11.284 3.014 8.26 8.26 0 0 0 3.014-11.284c-12.139-20.984-18.556-44.969-18.556-69.362 0-76.499 62.236-138.735 138.735-138.735s138.736 62.236 138.736 138.735-62.237 138.735-138.736 138.735c-38.491 0-74.271-15.397-100.748-43.355a8.258 8.258 0 1 0-11.992 11.358c29.629 31.284 69.667 48.513 112.74 48.513 85.606 0 155.252-69.645 155.252-155.252s-69.646-155.251-155.252-155.251z" fill="#000000" opacity="1" data-original="#000000"></path><path d="M256.551 355.647c55.25 0 100.198-44.948 100.198-100.198S311.8 155.252 256.551 155.252 156.353 200.2 156.353 255.449s44.948 100.198 100.198 100.198zm0-183.879c46.143 0 83.682 37.539 83.682 83.682s-37.539 83.682-83.682 83.682-83.682-37.539-83.682-83.682 37.539-83.682 83.682-83.682zM397.488 78.176c-20.035 0-36.335 16.3-36.335 36.335s16.3 36.335 36.335 36.335 36.335-16.3 36.335-36.335-16.3-36.335-36.335-36.335zm0 56.155c-10.928 0-19.819-8.891-19.819-19.819s8.891-19.819 19.819-19.819 19.819 8.891 19.819 19.819-8.891 19.819-19.819 19.819z" fill="#000000" opacity="1" data-original="#000000"></path><path d="M512 113.961C512 51.023 460.977 0 398.039 0H113.961C51.023 0 0 51.023 0 113.961v284.077C0 460.977 51.023 512 113.961 512h284.077C460.977 512 512 460.977 512 398.039V113.961zm-16.516 284.078c0 53.817-43.628 97.445-97.445 97.445H113.961c-53.817 0-97.445-43.628-97.445-97.445V113.961c0-53.817 43.628-97.445 97.445-97.445h284.077c53.817 0 97.445 43.628 97.445 97.445v284.078z" fill="#000000" opacity="1" data-original="#000000"></path><path d="M473.462 117.265c0-43.479-35.248-78.727-78.727-78.727h-277.47c-43.479 0-78.727 35.248-78.727 78.727v277.471c0 43.479 35.248 78.727 78.727 78.727h277.471c43.479 0 78.727-35.248 78.727-78.727V117.265zm-16.516 277.471c0 34.358-27.853 62.211-62.211 62.211h-277.47c-34.358 0-62.211-27.853-62.211-62.211V117.265c0-34.358 27.853-62.211 62.211-62.211h277.471c34.358 0 62.211 27.853 62.211 62.211v277.471z" fill="#000000" opacity="1" data-original="#000000"></path></g></svg>